<mxfile host="app.diagrams.net" modified="2021-04-26T09:23:38.619Z" agent="5.0 (Windows NT 10.0; Win64; x64) AppleWebKit/537.36 (KHTML, like Gecko) Chrome/90.0.4430.85 Safari/537.36" etag="ZFVNPY31bdXmjwdkWP_h" version="14.6.6" type="github">
  <diagram id="_BkoqEayFcA_iPLzUDcl" name="Page-1">
    <mxGraphModel dx="1422" dy="706" grid="1" gridSize="10" guides="1" tooltips="1" connect="1" arrows="1" fold="1" page="1" pageScale="1" pageWidth="827" pageHeight="1169" math="0" shadow="0">
      <root>
        <mxCell id="0" />
        <mxCell id="1" parent="0" />
        <mxCell id="B5DhvqtyqBvgkAlbuiQp-101" value="" style="rounded=0;whiteSpace=wrap;html=1;fontSize=14;align=center;dashed=1;" parent="1" vertex="1">
          <mxGeometry x="1290" y="2356" width="740" height="90" as="geometry" />
        </mxCell>
        <mxCell id="B5DhvqtyqBvgkAlbuiQp-100" value="" style="rounded=0;whiteSpace=wrap;html=1;fontSize=14;align=center;dashed=1;" parent="1" vertex="1">
          <mxGeometry x="1364" y="2115" width="820" height="130" as="geometry" />
        </mxCell>
        <UserObject label="https://upload.wikimedia.org/wikipedia/commons/d/db/Npm-logo.svg" link="https://upload.wikimedia.org/wikipedia/commons/d/db/Npm-logo.svg" id="mw7YGV9gwj3RuTq6S0IA-1">
          <mxCell style="rounded=0;whiteSpace=wrap;html=1;" parent="1" vertex="1">
            <mxGeometry x="100" y="70" width="950" height="450" as="geometry" />
          </mxCell>
        </UserObject>
        <mxCell id="mw7YGV9gwj3RuTq6S0IA-2" value="&lt;font style=&quot;font-size: 16px&quot;&gt;日志收集&lt;/font&gt;" style="rounded=0;whiteSpace=wrap;html=1;verticalAlign=top;fillColor=#dae8fc;strokeColor=#6c8ebf;" parent="1" vertex="1">
          <mxGeometry x="150" y="150" width="860" height="150" as="geometry" />
        </mxCell>
        <mxCell id="mw7YGV9gwj3RuTq6S0IA-3" value="&lt;span style=&quot;font-size: 16px&quot;&gt;日志上报&lt;/span&gt;" style="rounded=0;whiteSpace=wrap;html=1;verticalAlign=top;fillColor=#fff2cc;strokeColor=#d6b656;" parent="1" vertex="1">
          <mxGeometry x="150" y="330" width="450" height="150" as="geometry" />
        </mxCell>
        <mxCell id="mw7YGV9gwj3RuTq6S0IA-4" value="&lt;span style=&quot;font-size: 16px&quot;&gt;日志存储&lt;/span&gt;" style="rounded=0;whiteSpace=wrap;html=1;verticalAlign=top;fillColor=#f5f5f5;strokeColor=#666666;fontColor=#333333;" parent="1" vertex="1">
          <mxGeometry x="620" y="330" width="380" height="150" as="geometry" />
        </mxCell>
        <mxCell id="mw7YGV9gwj3RuTq6S0IA-5" value="&lt;font style=&quot;font-size: 18px&quot;&gt;web端日志解决方案&lt;/font&gt;" style="text;html=1;strokeColor=none;fillColor=none;align=center;verticalAlign=middle;whiteSpace=wrap;rounded=0;" parent="1" vertex="1">
          <mxGeometry x="375" y="90" width="400" height="20" as="geometry" />
        </mxCell>
        <mxCell id="mw7YGV9gwj3RuTq6S0IA-6" value="被动指令收集" style="rounded=0;whiteSpace=wrap;html=1;fillColor=#fff2cc;strokeColor=#d6b656;" parent="1" vertex="1">
          <mxGeometry x="170" y="195" width="170" height="60" as="geometry" />
        </mxCell>
        <mxCell id="mw7YGV9gwj3RuTq6S0IA-7" value="主动记录" style="rounded=0;whiteSpace=wrap;html=1;fillColor=#d5e8d4;strokeColor=#82b366;" parent="1" vertex="1">
          <mxGeometry x="790" y="197" width="190" height="60" as="geometry" />
        </mxCell>
        <mxCell id="mw7YGV9gwj3RuTq6S0IA-8" value="被动错误捕捉" style="rounded=0;whiteSpace=wrap;html=1;fillColor=#f8cecc;strokeColor=#b85450;" parent="1" vertex="1">
          <mxGeometry x="375" y="197" width="175" height="60" as="geometry" />
        </mxCell>
        <mxCell id="mw7YGV9gwj3RuTq6S0IA-9" value="被动路径收集" style="rounded=0;whiteSpace=wrap;html=1;fillColor=#ffe6cc;strokeColor=#d79b00;" parent="1" vertex="1">
          <mxGeometry x="590" y="197" width="170" height="60" as="geometry" />
        </mxCell>
        <mxCell id="mw7YGV9gwj3RuTq6S0IA-11" value="" style="shape=cylinder3;whiteSpace=wrap;html=1;boundedLbl=1;backgroundOutline=1;size=15;fillColor=#b0e3e6;strokeColor=#0e8088;" parent="1" vertex="1">
          <mxGeometry x="675" y="350" width="60" height="80" as="geometry" />
        </mxCell>
        <mxCell id="mw7YGV9gwj3RuTq6S0IA-12" value="Index DB本地缓存" style="text;html=1;strokeColor=none;fillColor=none;align=center;verticalAlign=middle;whiteSpace=wrap;rounded=0;" parent="1" vertex="1">
          <mxGeometry x="652.5" y="440" width="105" height="20" as="geometry" />
        </mxCell>
        <mxCell id="mw7YGV9gwj3RuTq6S0IA-13" value="" style="shape=cylinder3;whiteSpace=wrap;html=1;boundedLbl=1;backgroundOutline=1;size=15;fillColor=#b0e3e6;strokeColor=#0e8088;" parent="1" vertex="1">
          <mxGeometry x="890" y="350" width="60" height="80" as="geometry" />
        </mxCell>
        <mxCell id="mw7YGV9gwj3RuTq6S0IA-14" value="innodb" style="text;html=1;strokeColor=none;fillColor=none;align=center;verticalAlign=middle;whiteSpace=wrap;rounded=0;" parent="1" vertex="1">
          <mxGeometry x="867.5" y="440" width="105" height="20" as="geometry" />
        </mxCell>
        <mxCell id="mw7YGV9gwj3RuTq6S0IA-19" value="主动上报" style="rounded=0;whiteSpace=wrap;html=1;fillColor=#e1d5e7;strokeColor=#9673a6;" parent="1" vertex="1">
          <mxGeometry x="220" y="375" width="120" height="60" as="geometry" />
        </mxCell>
        <mxCell id="mw7YGV9gwj3RuTq6S0IA-20" value="定时上报" style="rounded=0;whiteSpace=wrap;html=1;fillColor=#e1d5e7;strokeColor=#9673a6;" parent="1" vertex="1">
          <mxGeometry x="430" y="375" width="120" height="60" as="geometry" />
        </mxCell>
        <mxCell id="9y2Axr564WV0KpgAV4Yw-1" value="" style="shape=cylinder3;whiteSpace=wrap;html=1;boundedLbl=1;backgroundOutline=1;size=15;rotation=0;fillColor=#dae8fc;strokeColor=#6c8ebf;" parent="1" vertex="1">
          <mxGeometry x="434" y="960" width="70" height="80" as="geometry" />
        </mxCell>
        <mxCell id="9y2Axr564WV0KpgAV4Yw-2" value="&lt;span style=&quot;color: rgb(0 , 0 , 0) ; font-family: &amp;#34;helvetica&amp;#34; ; font-size: 12px ; font-style: normal ; font-weight: 400 ; letter-spacing: normal ; text-align: center ; text-indent: 0px ; text-transform: none ; word-spacing: 0px ; background-color: rgb(248 , 249 , 250) ; display: inline ; float: none&quot;&gt;本地私库&lt;/span&gt;" style="text;whiteSpace=wrap;html=1;" parent="1" vertex="1">
          <mxGeometry x="444" y="1040" width="56" height="30" as="geometry" />
        </mxCell>
        <mxCell id="9y2Axr564WV0KpgAV4Yw-4" value="" style="shape=cylinder3;whiteSpace=wrap;html=1;boundedLbl=1;backgroundOutline=1;size=15;rotation=0;fillColor=#f8cecc;strokeColor=#b85450;" parent="1" vertex="1">
          <mxGeometry x="434" y="640" width="70" height="80" as="geometry" />
        </mxCell>
        <mxCell id="9y2Axr564WV0KpgAV4Yw-5" value="&lt;div style=&quot;text-align: center&quot;&gt;&lt;span&gt;&lt;font face=&quot;helvetica&quot;&gt;npm 官方库&lt;/font&gt;&lt;/span&gt;&lt;/div&gt;" style="text;whiteSpace=wrap;html=1;" parent="1" vertex="1">
          <mxGeometry x="434" y="720" width="76" height="30" as="geometry" />
        </mxCell>
        <mxCell id="9y2Axr564WV0KpgAV4Yw-6" value="" style="shape=cylinder3;whiteSpace=wrap;html=1;boundedLbl=1;backgroundOutline=1;size=15;rotation=0;fillColor=#d5e8d4;strokeColor=#82b366;" parent="1" vertex="1">
          <mxGeometry x="434" y="800" width="70" height="80" as="geometry" />
        </mxCell>
        <mxCell id="9y2Axr564WV0KpgAV4Yw-7" value="&lt;span style=&quot;font-family: &amp;#34;helvetica&amp;#34; ; text-align: center&quot;&gt;taobao npm库&lt;/span&gt;" style="text;whiteSpace=wrap;html=1;" parent="1" vertex="1">
          <mxGeometry x="430" y="880" width="90" height="30" as="geometry" />
        </mxCell>
        <mxCell id="9y2Axr564WV0KpgAV4Yw-8" value="" style="shape=image;verticalLabelPosition=bottom;labelBackgroundColor=#ffffff;verticalAlign=top;aspect=fixed;imageAspect=0;image=https://upload.wikimedia.org/wikipedia/commons/d/db/Npm-logo.svg;" parent="1" vertex="1">
          <mxGeometry x="443.26" y="1000" width="51.49" height="20" as="geometry" />
        </mxCell>
        <mxCell id="9y2Axr564WV0KpgAV4Yw-9" value="" style="shape=image;verticalLabelPosition=bottom;labelBackgroundColor=#ffffff;verticalAlign=top;aspect=fixed;imageAspect=0;image=https://upload.wikimedia.org/wikipedia/commons/d/db/Npm-logo.svg;" parent="1" vertex="1">
          <mxGeometry x="443.26" y="840" width="51.49" height="20" as="geometry" />
        </mxCell>
        <mxCell id="9y2Axr564WV0KpgAV4Yw-10" value="" style="shape=image;verticalLabelPosition=bottom;labelBackgroundColor=#ffffff;verticalAlign=top;aspect=fixed;imageAspect=0;image=https://upload.wikimedia.org/wikipedia/commons/d/db/Npm-logo.svg;" parent="1" vertex="1">
          <mxGeometry x="443.26" y="680" width="51.49" height="20" as="geometry" />
        </mxCell>
        <mxCell id="9y2Axr564WV0KpgAV4Yw-13" value="" style="shape=flexArrow;endArrow=classic;html=1;" parent="1" edge="1">
          <mxGeometry width="50" height="50" relative="1" as="geometry">
            <mxPoint x="468.5" y="905" as="sourcePoint" />
            <mxPoint x="468.5" y="955" as="targetPoint" />
          </mxGeometry>
        </mxCell>
        <mxCell id="9y2Axr564WV0KpgAV4Yw-15" value="" style="shape=flexArrow;endArrow=classic;html=1;" parent="1" edge="1">
          <mxGeometry width="50" height="50" relative="1" as="geometry">
            <mxPoint x="468.5" y="744" as="sourcePoint" />
            <mxPoint x="468.5" y="794" as="targetPoint" />
          </mxGeometry>
        </mxCell>
        <mxCell id="9y2Axr564WV0KpgAV4Yw-16" value="下载包加速，缓存" style="text;html=1;strokeColor=#d6b656;fillColor=#fff2cc;align=center;verticalAlign=middle;whiteSpace=wrap;rounded=0;" parent="1" vertex="1">
          <mxGeometry x="530" y="830" width="130" height="30" as="geometry" />
        </mxCell>
        <mxCell id="9y2Axr564WV0KpgAV4Yw-17" value="私有包，本地缓存" style="text;html=1;strokeColor=#d6b656;fillColor=#fff2cc;align=center;verticalAlign=middle;whiteSpace=wrap;rounded=0;" parent="1" vertex="1">
          <mxGeometry x="530" y="985" width="130" height="30" as="geometry" />
        </mxCell>
        <mxCell id="9y2Axr564WV0KpgAV4Yw-18" value="资源丰富" style="text;html=1;strokeColor=#d6b656;fillColor=#fff2cc;align=center;verticalAlign=middle;whiteSpace=wrap;rounded=0;" parent="1" vertex="1">
          <mxGeometry x="530" y="675" width="130" height="30" as="geometry" />
        </mxCell>
        <mxCell id="B5DhvqtyqBvgkAlbuiQp-1" value="园区测绘（公开组）&lt;br style=&quot;font-size: 14px;&quot;&gt;项目所有人都可以访问&lt;br style=&quot;font-size: 14px;&quot;&gt;" style="rounded=0;whiteSpace=wrap;html=1;fillColor=#ffe6cc;strokeColor=#d79b00;fontSize=14;" parent="1" vertex="1">
          <mxGeometry x="1400" y="440" width="240" height="120" as="geometry" />
        </mxCell>
        <mxCell id="B5DhvqtyqBvgkAlbuiQp-2" value="项目" style="rounded=0;whiteSpace=wrap;html=1;fontSize=14;fillColor=#dae8fc;strokeColor=#6c8ebf;" parent="1" vertex="1">
          <mxGeometry x="910" y="810" width="172.5" height="50" as="geometry" />
        </mxCell>
        <mxCell id="B5DhvqtyqBvgkAlbuiQp-3" value="群组" style="rounded=0;whiteSpace=wrap;html=1;fontSize=14;fillColor=#d5e8d4;strokeColor=#82b366;" parent="1" vertex="1">
          <mxGeometry x="911.25" y="1080" width="170" height="50" as="geometry" />
        </mxCell>
        <mxCell id="B5DhvqtyqBvgkAlbuiQp-4" value="&lt;div&gt;公开-&lt;span style=&quot;color: rgb(34 , 34 , 34)&quot;&gt;该项目允许任何人访问&lt;/span&gt;&lt;/div&gt;" style="rounded=1;whiteSpace=wrap;html=1;fontSize=14;align=center;fillColor=#d5e8d4;strokeColor=#82b366;" parent="1" vertex="1">
          <mxGeometry x="1200" y="880" width="220" height="40" as="geometry" />
        </mxCell>
        <mxCell id="B5DhvqtyqBvgkAlbuiQp-5" value="&lt;div style=&quot;text-align: left&quot;&gt;&lt;span&gt;内部-&lt;/span&gt;&lt;span&gt;&lt;font color=&quot;#222222&quot;&gt;该项目允许所有已登录到当前GitLab服务器的用户访问&lt;/font&gt;&lt;/span&gt;&lt;/div&gt;" style="rounded=1;whiteSpace=wrap;html=1;fontSize=14;fillColor=#ffe6cc;strokeColor=#d79b00;" parent="1" vertex="1">
          <mxGeometry x="1200" y="815" width="410" height="40" as="geometry" />
        </mxCell>
        <mxCell id="B5DhvqtyqBvgkAlbuiQp-6" value="&lt;div style=&quot;text-align: left&quot;&gt;&lt;font&gt;私有-&lt;/font&gt;&lt;span&gt;&lt;font color=&quot;#222222&quot; face=&quot;consolas, lucida console, courier new, monospace&quot;&gt;项目访问必须明确授予每个用户。 如果此项目是在一个群组中，群组成员将会获得访问权限&lt;/font&gt;&lt;/span&gt;&lt;/div&gt;" style="rounded=1;whiteSpace=wrap;html=1;fontSize=14;fillColor=#f8cecc;strokeColor=#b85450;" parent="1" vertex="1">
          <mxGeometry x="1200" y="750" width="640" height="40" as="geometry" />
        </mxCell>
        <mxCell id="B5DhvqtyqBvgkAlbuiQp-8" value="&lt;span style=&quot;color: rgb(34 , 34 , 34)&quot;&gt;&lt;font style=&quot;font-size: 14px&quot;&gt;私有 - 群组及其项目只能由成员查看。&lt;/font&gt;&lt;/span&gt;" style="rounded=1;whiteSpace=wrap;html=1;fontSize=14;align=center;fillColor=#f8cecc;strokeColor=#b85450;" parent="1" vertex="1">
          <mxGeometry x="1200" y="1010" width="270" height="40" as="geometry" />
        </mxCell>
        <mxCell id="B5DhvqtyqBvgkAlbuiQp-9" value="&lt;font style=&quot;font-size: 14px&quot;&gt;&lt;span style=&quot;color: rgb(34 , 34 , 34)&quot;&gt;内部 -&amp;nbsp;&lt;/span&gt;&lt;font color=&quot;#222222&quot; style=&quot;font-size: 14px&quot;&gt;任何登录的用户都可以查看该群组和任何内部项目。&lt;/font&gt;&lt;/font&gt;" style="rounded=1;whiteSpace=wrap;html=1;fontSize=14;align=center;fillColor=#ffe6cc;strokeColor=#d79b00;" parent="1" vertex="1">
          <mxGeometry x="1200" y="1080" width="400" height="40" as="geometry" />
        </mxCell>
        <mxCell id="B5DhvqtyqBvgkAlbuiQp-10" value="&lt;span style=&quot;color: rgb(34 , 34 , 34) ; font-size: 12px&quot;&gt;公开 -&amp;nbsp;&lt;/span&gt;&lt;font color=&quot;#222222&quot;&gt;&lt;span style=&quot;font-size: 12px&quot;&gt;群组和任何公共项目可以在没有任何身份验证的情况下查看。&lt;/span&gt;&lt;/font&gt;" style="rounded=1;whiteSpace=wrap;html=1;fontSize=14;align=center;fillColor=#d5e8d4;strokeColor=#82b366;" parent="1" vertex="1">
          <mxGeometry x="1200" y="1150" width="410" height="40" as="geometry" />
        </mxCell>
        <mxCell id="B5DhvqtyqBvgkAlbuiQp-11" value="公开群组" style="rounded=0;whiteSpace=wrap;html=1;fontSize=14;fillColor=#d5e8d4;strokeColor=#82b366;verticalAlign=top;" parent="1" vertex="1">
          <mxGeometry x="910" y="1280" width="560" height="280" as="geometry" />
        </mxCell>
        <mxCell id="B5DhvqtyqBvgkAlbuiQp-13" value="" style="endArrow=classic;html=1;fontSize=14;exitX=1;exitY=0.5;exitDx=0;exitDy=0;entryX=0;entryY=0.5;entryDx=0;entryDy=0;" parent="1" source="B5DhvqtyqBvgkAlbuiQp-2" target="B5DhvqtyqBvgkAlbuiQp-6" edge="1">
          <mxGeometry width="50" height="50" relative="1" as="geometry">
            <mxPoint x="1080" y="870" as="sourcePoint" />
            <mxPoint x="1130" y="820" as="targetPoint" />
          </mxGeometry>
        </mxCell>
        <mxCell id="B5DhvqtyqBvgkAlbuiQp-14" value="" style="endArrow=classic;html=1;fontSize=14;entryX=0;entryY=0.5;entryDx=0;entryDy=0;exitX=1;exitY=0.5;exitDx=0;exitDy=0;" parent="1" source="B5DhvqtyqBvgkAlbuiQp-2" target="B5DhvqtyqBvgkAlbuiQp-5" edge="1">
          <mxGeometry width="50" height="50" relative="1" as="geometry">
            <mxPoint x="1120" y="880" as="sourcePoint" />
            <mxPoint x="1170" y="830" as="targetPoint" />
          </mxGeometry>
        </mxCell>
        <mxCell id="B5DhvqtyqBvgkAlbuiQp-15" value="" style="endArrow=classic;html=1;fontSize=14;entryX=0;entryY=0.5;entryDx=0;entryDy=0;exitX=1;exitY=0.5;exitDx=0;exitDy=0;" parent="1" source="B5DhvqtyqBvgkAlbuiQp-2" target="B5DhvqtyqBvgkAlbuiQp-4" edge="1">
          <mxGeometry width="50" height="50" relative="1" as="geometry">
            <mxPoint x="1130" y="930" as="sourcePoint" />
            <mxPoint x="1180" y="880" as="targetPoint" />
          </mxGeometry>
        </mxCell>
        <mxCell id="B5DhvqtyqBvgkAlbuiQp-16" value="" style="endArrow=classic;html=1;fontSize=14;entryX=0;entryY=0.5;entryDx=0;entryDy=0;exitX=1;exitY=0.5;exitDx=0;exitDy=0;" parent="1" source="B5DhvqtyqBvgkAlbuiQp-3" target="B5DhvqtyqBvgkAlbuiQp-8" edge="1">
          <mxGeometry width="50" height="50" relative="1" as="geometry">
            <mxPoint x="1100" y="1150" as="sourcePoint" />
            <mxPoint x="1150" y="1100" as="targetPoint" />
          </mxGeometry>
        </mxCell>
        <mxCell id="B5DhvqtyqBvgkAlbuiQp-17" value="" style="endArrow=classic;html=1;fontSize=14;entryX=0;entryY=0.5;entryDx=0;entryDy=0;exitX=1;exitY=0.5;exitDx=0;exitDy=0;" parent="1" source="B5DhvqtyqBvgkAlbuiQp-3" target="B5DhvqtyqBvgkAlbuiQp-9" edge="1">
          <mxGeometry width="50" height="50" relative="1" as="geometry">
            <mxPoint x="1080" y="1160" as="sourcePoint" />
            <mxPoint x="1130" y="1110" as="targetPoint" />
          </mxGeometry>
        </mxCell>
        <mxCell id="B5DhvqtyqBvgkAlbuiQp-18" value="" style="endArrow=classic;html=1;fontSize=14;entryX=0;entryY=0.5;entryDx=0;entryDy=0;exitX=1;exitY=0.5;exitDx=0;exitDy=0;" parent="1" source="B5DhvqtyqBvgkAlbuiQp-3" target="B5DhvqtyqBvgkAlbuiQp-10" edge="1">
          <mxGeometry width="50" height="50" relative="1" as="geometry">
            <mxPoint x="1090" y="1200" as="sourcePoint" />
            <mxPoint x="1140" y="1150" as="targetPoint" />
          </mxGeometry>
        </mxCell>
        <mxCell id="B5DhvqtyqBvgkAlbuiQp-19" value="公开项目" style="rounded=0;whiteSpace=wrap;html=1;fontSize=14;align=center;fillColor=#d5e8d4;strokeColor=#82b366;" parent="1" vertex="1">
          <mxGeometry x="980" y="1330" width="430" height="50" as="geometry" />
        </mxCell>
        <mxCell id="B5DhvqtyqBvgkAlbuiQp-20" value="&lt;span&gt;内部项目&lt;/span&gt;" style="rounded=0;whiteSpace=wrap;html=1;fontSize=14;align=center;fillColor=#ffe6cc;strokeColor=#d79b00;" parent="1" vertex="1">
          <mxGeometry x="980" y="1410" width="430" height="50" as="geometry" />
        </mxCell>
        <mxCell id="B5DhvqtyqBvgkAlbuiQp-21" value="&lt;span&gt;私有项目&lt;/span&gt;" style="rounded=0;whiteSpace=wrap;html=1;fontSize=14;align=center;fillColor=#f8cecc;strokeColor=#b85450;" parent="1" vertex="1">
          <mxGeometry x="980" y="1490" width="430" height="50" as="geometry" />
        </mxCell>
        <mxCell id="B5DhvqtyqBvgkAlbuiQp-23" value="内部群组" style="rounded=0;whiteSpace=wrap;html=1;fontSize=14;fillColor=#ffe6cc;strokeColor=#d79b00;verticalAlign=top;" parent="1" vertex="1">
          <mxGeometry x="1500" y="1280" width="560" height="280" as="geometry" />
        </mxCell>
        <mxCell id="B5DhvqtyqBvgkAlbuiQp-25" value="&lt;span&gt;内部项目&lt;/span&gt;" style="rounded=0;whiteSpace=wrap;html=1;fontSize=14;align=center;fillColor=#ffe6cc;strokeColor=#d79b00;" parent="1" vertex="1">
          <mxGeometry x="1565" y="1350" width="430" height="50" as="geometry" />
        </mxCell>
        <mxCell id="B5DhvqtyqBvgkAlbuiQp-26" value="&lt;span&gt;私有项目&lt;/span&gt;" style="rounded=0;whiteSpace=wrap;html=1;fontSize=14;align=center;fillColor=#f8cecc;strokeColor=#b85450;" parent="1" vertex="1">
          <mxGeometry x="1570" y="1420" width="430" height="50" as="geometry" />
        </mxCell>
        <mxCell id="B5DhvqtyqBvgkAlbuiQp-27" value="私有群组" style="rounded=0;whiteSpace=wrap;html=1;fontSize=14;fillColor=#f8cecc;strokeColor=#b85450;verticalAlign=top;" parent="1" vertex="1">
          <mxGeometry x="2090" y="1280" width="560" height="280" as="geometry" />
        </mxCell>
        <mxCell id="B5DhvqtyqBvgkAlbuiQp-29" value="&lt;span&gt;私有项目&lt;/span&gt;" style="rounded=0;whiteSpace=wrap;html=1;fontSize=14;align=center;fillColor=#f8cecc;strokeColor=#b85450;" parent="1" vertex="1">
          <mxGeometry x="2155" y="1390" width="430" height="50" as="geometry" />
        </mxCell>
        <mxCell id="B5DhvqtyqBvgkAlbuiQp-30" value="开放项目" style="ellipse;whiteSpace=wrap;html=1;aspect=fixed;fontSize=14;align=center;fillColor=#d5e8d4;strokeColor=#82b366;" parent="1" vertex="1">
          <mxGeometry x="1030" y="1730" width="80" height="80" as="geometry" />
        </mxCell>
        <mxCell id="B5DhvqtyqBvgkAlbuiQp-31" value="园区测绘开源项目组(内部)" style="rounded=0;whiteSpace=wrap;html=1;fontSize=14;align=center;fillColor=#dae8fc;strokeColor=#6c8ebf;" parent="1" vertex="1">
          <mxGeometry x="1190" y="1670" width="180" height="60" as="geometry" />
        </mxCell>
        <mxCell id="B5DhvqtyqBvgkAlbuiQp-33" value="私有项目" style="rounded=0;whiteSpace=wrap;html=1;fontSize=14;align=center;fillColor=#e1d5e7;strokeColor=#9673a6;" parent="1" vertex="1">
          <mxGeometry x="1190" y="1800" width="180" height="60" as="geometry" />
        </mxCell>
        <mxCell id="B5DhvqtyqBvgkAlbuiQp-36" value="" style="endArrow=none;html=1;fontSize=14;entryX=0;entryY=0.5;entryDx=0;entryDy=0;exitX=1;exitY=0.5;exitDx=0;exitDy=0;" parent="1" source="B5DhvqtyqBvgkAlbuiQp-30" target="B5DhvqtyqBvgkAlbuiQp-31" edge="1">
          <mxGeometry width="50" height="50" relative="1" as="geometry">
            <mxPoint x="1120" y="1760" as="sourcePoint" />
            <mxPoint x="1170" y="1710" as="targetPoint" />
          </mxGeometry>
        </mxCell>
        <mxCell id="B5DhvqtyqBvgkAlbuiQp-37" value="" style="endArrow=none;html=1;fontSize=14;entryX=0;entryY=0.5;entryDx=0;entryDy=0;exitX=1;exitY=0.5;exitDx=0;exitDy=0;" parent="1" source="B5DhvqtyqBvgkAlbuiQp-30" target="B5DhvqtyqBvgkAlbuiQp-33" edge="1">
          <mxGeometry width="50" height="50" relative="1" as="geometry">
            <mxPoint x="1120" y="1870" as="sourcePoint" />
            <mxPoint x="1170" y="1820" as="targetPoint" />
          </mxGeometry>
        </mxCell>
        <mxCell id="B5DhvqtyqBvgkAlbuiQp-38" value="闭源项目" style="ellipse;whiteSpace=wrap;html=1;aspect=fixed;fontSize=14;align=center;fillColor=#ffe6cc;strokeColor=#d79b00;" parent="1" vertex="1">
          <mxGeometry x="1830" y="1730" width="80" height="80" as="geometry" />
        </mxCell>
        <mxCell id="B5DhvqtyqBvgkAlbuiQp-39" value="私有群组" style="rounded=0;whiteSpace=wrap;html=1;fontSize=14;align=center;fillColor=#f8cecc;strokeColor=#b85450;" parent="1" vertex="1">
          <mxGeometry x="1990" y="1670" width="120" height="60" as="geometry" />
        </mxCell>
        <mxCell id="B5DhvqtyqBvgkAlbuiQp-40" value="私有项目" style="rounded=0;whiteSpace=wrap;html=1;fontSize=14;align=center;fillColor=#e1d5e7;strokeColor=#9673a6;" parent="1" vertex="1">
          <mxGeometry x="1990" y="1800" width="120" height="60" as="geometry" />
        </mxCell>
        <mxCell id="B5DhvqtyqBvgkAlbuiQp-41" value="" style="endArrow=none;html=1;fontSize=14;entryX=0;entryY=0.5;entryDx=0;entryDy=0;exitX=1;exitY=0.5;exitDx=0;exitDy=0;" parent="1" source="B5DhvqtyqBvgkAlbuiQp-38" target="B5DhvqtyqBvgkAlbuiQp-39" edge="1">
          <mxGeometry width="50" height="50" relative="1" as="geometry">
            <mxPoint x="1920" y="1760" as="sourcePoint" />
            <mxPoint x="1970" y="1710" as="targetPoint" />
          </mxGeometry>
        </mxCell>
        <mxCell id="B5DhvqtyqBvgkAlbuiQp-42" value="" style="endArrow=none;html=1;fontSize=14;entryX=0;entryY=0.5;entryDx=0;entryDy=0;exitX=1;exitY=0.5;exitDx=0;exitDy=0;" parent="1" source="B5DhvqtyqBvgkAlbuiQp-38" target="B5DhvqtyqBvgkAlbuiQp-40" edge="1">
          <mxGeometry width="50" height="50" relative="1" as="geometry">
            <mxPoint x="1920" y="1870" as="sourcePoint" />
            <mxPoint x="1970" y="1820" as="targetPoint" />
          </mxGeometry>
        </mxCell>
        <mxCell id="B5DhvqtyqBvgkAlbuiQp-47" value="成员权限" style="rounded=0;whiteSpace=wrap;html=1;fontSize=14;align=center;fillColor=#e1d5e7;strokeColor=#9673a6;" parent="1" vertex="1">
          <mxGeometry x="1760" y="925" width="120" height="60" as="geometry" />
        </mxCell>
        <mxCell id="B5DhvqtyqBvgkAlbuiQp-48" value="开发者：查看代码，fork项目，推送分支" style="rounded=1;whiteSpace=wrap;html=1;fontSize=14;align=center;fillColor=#ffe6cc;strokeColor=#d79b00;" parent="1" vertex="1">
          <mxGeometry x="1990" y="830" width="300" height="60" as="geometry" />
        </mxCell>
        <mxCell id="B5DhvqtyqBvgkAlbuiQp-49" value="所有者：查看代码，下载代码，提交代码，删除项目" style="rounded=1;whiteSpace=wrap;html=1;fontSize=14;align=center;fillColor=#d5e8d4;strokeColor=#82b366;" parent="1" vertex="1">
          <mxGeometry x="1990" y="1025" width="360" height="60" as="geometry" />
        </mxCell>
        <mxCell id="B5DhvqtyqBvgkAlbuiQp-50" value="维护者：查看代码，下载代码，提交代码" style="rounded=1;whiteSpace=wrap;html=1;fontSize=14;align=center;fillColor=#dae8fc;strokeColor=#6c8ebf;" parent="1" vertex="1">
          <mxGeometry x="1990" y="925" width="300" height="60" as="geometry" />
        </mxCell>
        <mxCell id="B5DhvqtyqBvgkAlbuiQp-52" value="" style="endArrow=classic;html=1;fontSize=14;entryX=0;entryY=0.5;entryDx=0;entryDy=0;exitX=1;exitY=0.5;exitDx=0;exitDy=0;" parent="1" source="B5DhvqtyqBvgkAlbuiQp-47" target="B5DhvqtyqBvgkAlbuiQp-48" edge="1">
          <mxGeometry width="50" height="50" relative="1" as="geometry">
            <mxPoint x="1900" y="960" as="sourcePoint" />
            <mxPoint x="1950" y="910" as="targetPoint" />
          </mxGeometry>
        </mxCell>
        <mxCell id="B5DhvqtyqBvgkAlbuiQp-53" value="" style="endArrow=classic;html=1;fontSize=14;entryX=0;entryY=0.5;entryDx=0;entryDy=0;" parent="1" source="B5DhvqtyqBvgkAlbuiQp-47" target="B5DhvqtyqBvgkAlbuiQp-50" edge="1">
          <mxGeometry width="50" height="50" relative="1" as="geometry">
            <mxPoint x="1900" y="1040" as="sourcePoint" />
            <mxPoint x="1950" y="990" as="targetPoint" />
          </mxGeometry>
        </mxCell>
        <mxCell id="B5DhvqtyqBvgkAlbuiQp-54" value="" style="endArrow=classic;html=1;fontSize=14;exitX=1;exitY=0.5;exitDx=0;exitDy=0;entryX=0;entryY=0.5;entryDx=0;entryDy=0;" parent="1" source="B5DhvqtyqBvgkAlbuiQp-47" target="B5DhvqtyqBvgkAlbuiQp-49" edge="1">
          <mxGeometry width="50" height="50" relative="1" as="geometry">
            <mxPoint x="1870" y="1060" as="sourcePoint" />
            <mxPoint x="1920" y="1010" as="targetPoint" />
          </mxGeometry>
        </mxCell>
        <mxCell id="B5DhvqtyqBvgkAlbuiQp-55" value="1、项目迁移至园区测绘群组，权限置为&quot;私有&quot;项目&lt;br&gt;2、只能查看项目的wiki（描述页面），不能查看代码。&lt;br&gt;3、进行申请成为开发者，可查看下载代码，fork项目，推送合并分支，为项目提供贡献。" style="text;html=1;strokeColor=none;fillColor=none;align=left;verticalAlign=middle;whiteSpace=wrap;rounded=0;fontSize=14;" parent="1" vertex="1">
          <mxGeometry x="1400" y="1775" width="390" height="110" as="geometry" />
        </mxCell>
        <mxCell id="B5DhvqtyqBvgkAlbuiQp-56" value="&lt;div style=&quot;&quot;&gt;&lt;span&gt;&lt;font face=&quot;helvetica&quot;&gt;1、群组内包含所有用户&lt;/font&gt;&lt;/span&gt;&lt;/div&gt;&lt;div style=&quot;&quot;&gt;&lt;span&gt;&lt;font face=&quot;helvetica&quot;&gt;2、如果某用户不在群组内，则无法查看群租内项目(wiki)&lt;/font&gt;&lt;/span&gt;&lt;/div&gt;" style="text;whiteSpace=wrap;html=1;fontSize=14;align=left;" parent="1" vertex="1">
          <mxGeometry x="1400" y="1685" width="370" height="55" as="geometry" />
        </mxCell>
        <mxCell id="B5DhvqtyqBvgkAlbuiQp-58" value="来宾：查看wiki/介绍" style="rounded=1;whiteSpace=wrap;html=1;fontSize=14;align=center;fillColor=#f5f5f5;strokeColor=#666666;fontColor=#333333;" parent="1" vertex="1">
          <mxGeometry x="1990" y="740" width="300" height="60" as="geometry" />
        </mxCell>
        <mxCell id="B5DhvqtyqBvgkAlbuiQp-59" value="" style="endArrow=classic;html=1;fontSize=14;entryX=0;entryY=0.5;entryDx=0;entryDy=0;exitX=1;exitY=0.5;exitDx=0;exitDy=0;" parent="1" source="B5DhvqtyqBvgkAlbuiQp-47" target="B5DhvqtyqBvgkAlbuiQp-58" edge="1">
          <mxGeometry width="50" height="50" relative="1" as="geometry">
            <mxPoint x="1890" y="860" as="sourcePoint" />
            <mxPoint x="1940" y="810" as="targetPoint" />
          </mxGeometry>
        </mxCell>
        <mxCell id="B5DhvqtyqBvgkAlbuiQp-60" value="&lt;span style=&quot;color: rgb(0 , 0 , 0) ; font-family: &amp;#34;helvetica&amp;#34; ; font-size: 14px ; font-style: normal ; font-weight: 400 ; letter-spacing: normal ; text-align: center ; text-indent: 0px ; text-transform: none ; word-spacing: 0px ; background-color: rgb(248 , 249 , 250) ; display: inline ; float: none&quot;&gt;只有群组内部人员可以查看该项目&lt;/span&gt;" style="text;whiteSpace=wrap;html=1;fontSize=14;" parent="1" vertex="1">
          <mxGeometry x="2140" y="1687.5" width="250" height="25" as="geometry" />
        </mxCell>
        <mxCell id="B5DhvqtyqBvgkAlbuiQp-61" value="&lt;span style=&quot;color: rgb(0 , 0 , 0) ; font-family: &amp;#34;helvetica&amp;#34; ; font-size: 14px ; font-style: normal ; font-weight: 400 ; letter-spacing: normal ; text-align: left ; text-indent: 0px ; text-transform: none ; word-spacing: 0px ; background-color: rgb(248 , 249 , 250) ; display: inline ; float: none&quot;&gt;内部人员才能查看&lt;br&gt;&lt;/span&gt;" style="text;whiteSpace=wrap;html=1;fontSize=14;" parent="1" vertex="1">
          <mxGeometry x="2140" y="1820" width="350" height="30" as="geometry" />
        </mxCell>
        <mxCell id="B5DhvqtyqBvgkAlbuiQp-62" value="" style="endArrow=classic;html=1;fontSize=14;exitX=1;exitY=0.5;exitDx=0;exitDy=0;entryX=0;entryY=0.4;entryDx=0;entryDy=0;entryPerimeter=0;" parent="1" source="B5DhvqtyqBvgkAlbuiQp-50" target="B5DhvqtyqBvgkAlbuiQp-64" edge="1">
          <mxGeometry width="50" height="50" relative="1" as="geometry">
            <mxPoint x="2390" y="1000" as="sourcePoint" />
            <mxPoint x="2490" y="990" as="targetPoint" />
          </mxGeometry>
        </mxCell>
        <mxCell id="B5DhvqtyqBvgkAlbuiQp-63" value="" style="endArrow=classic;html=1;fontSize=14;exitX=1;exitY=0.5;exitDx=0;exitDy=0;entryX=0;entryY=0.75;entryDx=0;entryDy=0;" parent="1" source="B5DhvqtyqBvgkAlbuiQp-49" target="B5DhvqtyqBvgkAlbuiQp-64" edge="1">
          <mxGeometry width="50" height="50" relative="1" as="geometry">
            <mxPoint x="2430" y="1100" as="sourcePoint" />
            <mxPoint x="2490" y="990" as="targetPoint" />
          </mxGeometry>
        </mxCell>
        <mxCell id="B5DhvqtyqBvgkAlbuiQp-64" value="项目成员权限" style="rounded=0;whiteSpace=wrap;html=1;fontSize=14;align=center;fillColor=#d5e8d4;strokeColor=#82b366;" parent="1" vertex="1">
          <mxGeometry x="2490" y="965" width="120" height="60" as="geometry" />
        </mxCell>
        <mxCell id="B5DhvqtyqBvgkAlbuiQp-65" value="开放项目权限" style="rounded=0;whiteSpace=wrap;html=1;fontSize=14;align=center;fillColor=#fff2cc;strokeColor=#d6b656;" parent="1" vertex="1">
          <mxGeometry x="2481" y="755" width="120" height="60" as="geometry" />
        </mxCell>
        <mxCell id="B5DhvqtyqBvgkAlbuiQp-66" value="" style="endArrow=classic;html=1;fontSize=14;exitX=1;exitY=0.367;exitDx=0;exitDy=0;exitPerimeter=0;" parent="1" source="B5DhvqtyqBvgkAlbuiQp-58" target="B5DhvqtyqBvgkAlbuiQp-65" edge="1">
          <mxGeometry width="50" height="50" relative="1" as="geometry">
            <mxPoint x="2300" y="820" as="sourcePoint" />
            <mxPoint x="2350" y="770" as="targetPoint" />
          </mxGeometry>
        </mxCell>
        <mxCell id="B5DhvqtyqBvgkAlbuiQp-67" value="" style="endArrow=classic;html=1;fontSize=14;exitX=1;exitY=0.5;exitDx=0;exitDy=0;" parent="1" source="B5DhvqtyqBvgkAlbuiQp-48" edge="1">
          <mxGeometry width="50" height="50" relative="1" as="geometry">
            <mxPoint x="2360" y="860" as="sourcePoint" />
            <mxPoint x="2480" y="800" as="targetPoint" />
          </mxGeometry>
        </mxCell>
        <mxCell id="B5DhvqtyqBvgkAlbuiQp-68" value="项目申请开源流程（手动）" style="text;html=1;strokeColor=none;fillColor=none;align=center;verticalAlign=middle;whiteSpace=wrap;rounded=0;fontSize=32;" parent="1" vertex="1">
          <mxGeometry x="805" y="2020" width="530" height="30" as="geometry" />
        </mxCell>
        <mxCell id="B5DhvqtyqBvgkAlbuiQp-72" value="登录，添加cbb开源申请" style="rounded=0;whiteSpace=wrap;html=1;fontSize=14;align=center;" parent="1" vertex="1">
          <mxGeometry x="1070" y="2150" width="120" height="60" as="geometry" />
        </mxCell>
        <mxCell id="B5DhvqtyqBvgkAlbuiQp-74" value="gitlab上的项目地址" style="rounded=1;whiteSpace=wrap;html=1;fontSize=14;align=center;" parent="1" vertex="1">
          <mxGeometry x="1200" y="2090" width="160" height="40" as="geometry" />
        </mxCell>
        <mxCell id="B5DhvqtyqBvgkAlbuiQp-75" value="管理员登录gitlab" style="rounded=0;whiteSpace=wrap;html=1;fontSize=14;align=center;" parent="1" vertex="1">
          <mxGeometry x="1370" y="2150" width="120" height="60" as="geometry" />
        </mxCell>
        <mxCell id="B5DhvqtyqBvgkAlbuiQp-76" value="" style="endArrow=classic;html=1;fontSize=14;exitX=1;exitY=0.5;exitDx=0;exitDy=0;" parent="1" source="B5DhvqtyqBvgkAlbuiQp-72" target="B5DhvqtyqBvgkAlbuiQp-75" edge="1">
          <mxGeometry width="50" height="50" relative="1" as="geometry">
            <mxPoint x="1220" y="2210" as="sourcePoint" />
            <mxPoint x="1270" y="2160" as="targetPoint" />
          </mxGeometry>
        </mxCell>
        <mxCell id="B5DhvqtyqBvgkAlbuiQp-77" value="根据地址找到项目" style="rounded=0;whiteSpace=wrap;html=1;fontSize=14;align=center;" parent="1" vertex="1">
          <mxGeometry x="1600" y="2150" width="120" height="60" as="geometry" />
        </mxCell>
        <mxCell id="B5DhvqtyqBvgkAlbuiQp-78" value="" style="endArrow=classic;html=1;fontSize=14;entryX=0;entryY=0.5;entryDx=0;entryDy=0;exitX=1;exitY=0.5;exitDx=0;exitDy=0;" parent="1" source="B5DhvqtyqBvgkAlbuiQp-75" target="B5DhvqtyqBvgkAlbuiQp-77" edge="1">
          <mxGeometry width="50" height="50" relative="1" as="geometry">
            <mxPoint x="1500" y="2210" as="sourcePoint" />
            <mxPoint x="1550" y="2160" as="targetPoint" />
          </mxGeometry>
        </mxCell>
        <mxCell id="B5DhvqtyqBvgkAlbuiQp-84" value="" style="edgeStyle=orthogonalEdgeStyle;rounded=0;orthogonalLoop=1;jettySize=auto;html=1;fontSize=14;" parent="1" source="B5DhvqtyqBvgkAlbuiQp-79" target="B5DhvqtyqBvgkAlbuiQp-83" edge="1">
          <mxGeometry relative="1" as="geometry" />
        </mxCell>
        <mxCell id="B5DhvqtyqBvgkAlbuiQp-79" value="迁移项目至“园区测绘开源项目”组" style="rounded=0;whiteSpace=wrap;html=1;fontSize=14;align=center;" parent="1" vertex="1">
          <mxGeometry x="1830" y="2150" width="280" height="60" as="geometry" />
        </mxCell>
        <mxCell id="B5DhvqtyqBvgkAlbuiQp-80" value="" style="endArrow=classic;html=1;fontSize=14;entryX=0;entryY=0.5;entryDx=0;entryDy=0;exitX=1;exitY=0.5;exitDx=0;exitDy=0;" parent="1" source="B5DhvqtyqBvgkAlbuiQp-77" target="B5DhvqtyqBvgkAlbuiQp-79" edge="1">
          <mxGeometry width="50" height="50" relative="1" as="geometry">
            <mxPoint x="1750" y="2220" as="sourcePoint" />
            <mxPoint x="1800" y="2170" as="targetPoint" />
          </mxGeometry>
        </mxCell>
        <mxCell id="B5DhvqtyqBvgkAlbuiQp-82" value="" style="edgeStyle=orthogonalEdgeStyle;rounded=0;orthogonalLoop=1;jettySize=auto;html=1;fontSize=14;" parent="1" source="B5DhvqtyqBvgkAlbuiQp-81" target="B5DhvqtyqBvgkAlbuiQp-72" edge="1">
          <mxGeometry relative="1" as="geometry" />
        </mxCell>
        <mxCell id="B5DhvqtyqBvgkAlbuiQp-81" value="开始" style="ellipse;whiteSpace=wrap;html=1;aspect=fixed;fontSize=14;align=center;fillColor=#f8cecc;strokeColor=#b85450;" parent="1" vertex="1">
          <mxGeometry x="890" y="2140" width="80" height="80" as="geometry" />
        </mxCell>
        <mxCell id="B5DhvqtyqBvgkAlbuiQp-83" value="结束" style="ellipse;whiteSpace=wrap;html=1;aspect=fixed;fontSize=14;align=center;fillColor=#d5e8d4;strokeColor=#82b366;" parent="1" vertex="1">
          <mxGeometry x="2210" y="2140" width="80" height="80" as="geometry" />
        </mxCell>
        <mxCell id="B5DhvqtyqBvgkAlbuiQp-85" value="用户申请使用开源项目" style="text;html=1;strokeColor=none;fillColor=none;align=center;verticalAlign=middle;whiteSpace=wrap;rounded=0;fontSize=32;" parent="1" vertex="1">
          <mxGeometry x="790" y="2260" width="530" height="30" as="geometry" />
        </mxCell>
        <mxCell id="B5DhvqtyqBvgkAlbuiQp-88" value="" style="edgeStyle=orthogonalEdgeStyle;rounded=0;orthogonalLoop=1;jettySize=auto;html=1;fontSize=14;" parent="1" source="B5DhvqtyqBvgkAlbuiQp-86" target="B5DhvqtyqBvgkAlbuiQp-87" edge="1">
          <mxGeometry relative="1" as="geometry" />
        </mxCell>
        <mxCell id="B5DhvqtyqBvgkAlbuiQp-86" value="开始" style="ellipse;whiteSpace=wrap;html=1;aspect=fixed;fontSize=14;align=center;fillColor=#f8cecc;strokeColor=#b85450;" parent="1" vertex="1">
          <mxGeometry x="890" y="2350" width="80" height="80" as="geometry" />
        </mxCell>
        <mxCell id="B5DhvqtyqBvgkAlbuiQp-87" value="登录cbb，申请使用开源项目" style="rounded=0;whiteSpace=wrap;html=1;fontSize=14;align=center;" parent="1" vertex="1">
          <mxGeometry x="1070" y="2360" width="120" height="60" as="geometry" />
        </mxCell>
        <mxCell id="B5DhvqtyqBvgkAlbuiQp-92" value="" style="edgeStyle=orthogonalEdgeStyle;rounded=0;orthogonalLoop=1;jettySize=auto;html=1;fontSize=14;" parent="1" source="B5DhvqtyqBvgkAlbuiQp-89" target="B5DhvqtyqBvgkAlbuiQp-91" edge="1">
          <mxGeometry relative="1" as="geometry" />
        </mxCell>
        <mxCell id="B5DhvqtyqBvgkAlbuiQp-89" value="管理员登录gitlab" style="rounded=0;whiteSpace=wrap;html=1;fontSize=14;align=center;" parent="1" vertex="1">
          <mxGeometry x="1330" y="2360" width="120" height="60" as="geometry" />
        </mxCell>
        <mxCell id="B5DhvqtyqBvgkAlbuiQp-90" value="gitlab上的项目地址" style="rounded=1;whiteSpace=wrap;html=1;fontSize=14;align=center;" parent="1" vertex="1">
          <mxGeometry x="1210" y="2310" width="160" height="40" as="geometry" />
        </mxCell>
        <mxCell id="B5DhvqtyqBvgkAlbuiQp-94" value="" style="edgeStyle=orthogonalEdgeStyle;rounded=0;orthogonalLoop=1;jettySize=auto;html=1;fontSize=14;" parent="1" source="B5DhvqtyqBvgkAlbuiQp-91" target="B5DhvqtyqBvgkAlbuiQp-93" edge="1">
          <mxGeometry relative="1" as="geometry" />
        </mxCell>
        <mxCell id="B5DhvqtyqBvgkAlbuiQp-91" value="根据地址找到项目" style="rounded=0;whiteSpace=wrap;html=1;fontSize=14;align=center;" parent="1" vertex="1">
          <mxGeometry x="1600" y="2360" width="120" height="60" as="geometry" />
        </mxCell>
        <mxCell id="B5DhvqtyqBvgkAlbuiQp-96" value="" style="edgeStyle=orthogonalEdgeStyle;rounded=0;orthogonalLoop=1;jettySize=auto;html=1;fontSize=14;" parent="1" source="B5DhvqtyqBvgkAlbuiQp-93" target="B5DhvqtyqBvgkAlbuiQp-95" edge="1">
          <mxGeometry relative="1" as="geometry" />
        </mxCell>
        <mxCell id="B5DhvqtyqBvgkAlbuiQp-93" value="添加项目成员，权限“开发者”" style="rounded=0;whiteSpace=wrap;html=1;fontSize=14;align=center;" parent="1" vertex="1">
          <mxGeometry x="1830" y="2360" width="120" height="60" as="geometry" />
        </mxCell>
        <mxCell id="B5DhvqtyqBvgkAlbuiQp-95" value="结束" style="ellipse;whiteSpace=wrap;html=1;aspect=fixed;fontSize=14;align=center;fillColor=#d5e8d4;strokeColor=#82b366;" parent="1" vertex="1">
          <mxGeometry x="2050" y="2350" width="80" height="80" as="geometry" />
        </mxCell>
        <mxCell id="B5DhvqtyqBvgkAlbuiQp-97" value="" style="endArrow=classic;html=1;fontSize=14;entryX=1;entryY=0;entryDx=0;entryDy=0;exitX=0.25;exitY=1;exitDx=0;exitDy=0;" parent="1" source="B5DhvqtyqBvgkAlbuiQp-74" target="B5DhvqtyqBvgkAlbuiQp-72" edge="1">
          <mxGeometry width="50" height="50" relative="1" as="geometry">
            <mxPoint x="1560" y="2240" as="sourcePoint" />
            <mxPoint x="1610" y="2190" as="targetPoint" />
          </mxGeometry>
        </mxCell>
        <mxCell id="B5DhvqtyqBvgkAlbuiQp-98" value="" style="endArrow=classic;html=1;fontSize=14;entryX=1;entryY=0;entryDx=0;entryDy=0;exitX=0.5;exitY=1;exitDx=0;exitDy=0;" parent="1" source="B5DhvqtyqBvgkAlbuiQp-90" target="B5DhvqtyqBvgkAlbuiQp-87" edge="1">
          <mxGeometry width="50" height="50" relative="1" as="geometry">
            <mxPoint x="1230" y="2490" as="sourcePoint" />
            <mxPoint x="1280" y="2440" as="targetPoint" />
          </mxGeometry>
        </mxCell>
        <mxCell id="B5DhvqtyqBvgkAlbuiQp-99" value="" style="endArrow=classic;html=1;fontSize=14;entryX=0;entryY=0.5;entryDx=0;entryDy=0;" parent="1" source="B5DhvqtyqBvgkAlbuiQp-87" target="B5DhvqtyqBvgkAlbuiQp-89" edge="1">
          <mxGeometry width="50" height="50" relative="1" as="geometry">
            <mxPoint x="1270" y="2480" as="sourcePoint" />
            <mxPoint x="1320" y="2430" as="targetPoint" />
          </mxGeometry>
        </mxCell>
        <mxCell id="B5DhvqtyqBvgkAlbuiQp-102" value="后期自动化" style="text;html=1;strokeColor=none;fillColor=none;align=center;verticalAlign=middle;whiteSpace=wrap;rounded=0;dashed=1;fontSize=14;" parent="1" vertex="1">
          <mxGeometry x="1700" y="2115" width="100" height="20" as="geometry" />
        </mxCell>
        <mxCell id="B5DhvqtyqBvgkAlbuiQp-103" value="后期自动化" style="text;html=1;strokeColor=none;fillColor=none;align=center;verticalAlign=middle;whiteSpace=wrap;rounded=0;dashed=1;fontSize=14;" parent="1" vertex="1">
          <mxGeometry x="1602" y="2427" width="100" height="20" as="geometry" />
        </mxCell>
      </root>
    </mxGraphModel>
  </diagram>
</mxfile>
